# xmcd CD database file
#
# Track frame offsets:
#	150
#	24041
#	38944
#	54551
#	71797
#	83004
#	97588
#	106222
#	113699
#	124814
#	143958
#	159340
#	164461
#	182971
#	196995
#	211262
#	238301
#
# Disc length: 3550 seconds
#
# Revision: 0
# Processed by: cddbd v1.5.1PL0 Copyright (c) Steve Scherf et al.
# Submitted via: CDex 1.51
#
DISCID=e10ddc11
DTITLE=Mathew A Felton - Impression
DYEAR=1996
DGENRE=Jazz
TTITLE0=Dream of Love
TTITLE1=Mystery
TTITLE2=Dance of the Butterfly
TTITLE3=Impression
TTITLE4=Song for Catherine
TTITLE5=New Beginning
TTITLE6=Spring Time
TTITLE7=Blue Ritz
TTITLE8=What Went Wrong and Why
TTITLE9=Li River
TTITLE10=Olympics
TTITLE11=Uptown
TTITLE12=Morning Snow
TTITLE13=Sign of Hope
TTITLE14=Summer Afternoon
TTITLE15=Light Within
TTITLE16=Life in the Stars
EXTD=YEAR: 1996
EXTT0=
EXTT1=
EXTT2=
EXTT3=
EXTT4=
EXTT5=
EXTT6=
EXTT7=
EXTT8=
EXTT9=
EXTT10=
EXTT11=
EXTT12=
EXTT13=
EXTT14=
EXTT15=
EXTT16=
PLAYORDER=
